<?xml version="1.0" encoding="UTF-8" standalone="no"?><!DOCTYPE svg PUBLIC "-//W3C//DTD SVG 1.1//EN" "http://www.w3.org/Graphics/SVG/1.1/DTD/svg11.dtd"><svg width="100%" height="100%" viewBox="0 0 871 144" version="1.1" xmlns="http://www.w3.org/2000/svg" xmlns:xlink="http://www.w3.org/1999/xlink" xml:space="preserve" xmlns:serif="http://www.serif.com/" style="fill-rule:evenodd;clip-rule:evenodd;stroke-linejoin:round;stroke-miterlimit:2;"><rect id="Artboard1" x="0" y="0" width="870.939" height="143.155" style="fill:none;"/><path d="M329.553,90.928c-0.294,0.627 -0.614,1.243 -0.958,1.85c-2.34,4.117 -5.72,7.67 -10.14,10.66c-4.42,2.99 -9.75,5.287 -15.99,6.89c-6.24,1.603 -13.26,2.405 -21.06,2.405c-9.36,0 -17.68,-1.322 -24.96,-3.965c-7.28,-2.643 -13.022,-6.478 -17.225,-11.505c-4.203,-5.027 -6.305,-11.093 -6.305,-18.2c0,-7.453 2.102,-13.693 6.305,-18.72c4.203,-5.027 9.945,-8.797 17.225,-11.31c7.28,-2.513 15.6,-3.77 24.96,-3.77c10.4,0 19.392,1.408 26.975,4.225c7.583,2.817 13.433,6.76 17.55,11.83c1.445,1.78 2.637,3.664 3.575,5.653l0,-19.758l31.2,0l0,63.7l-29.38,0l-0.455,-2.99c-0.303,-1.993 -0.607,-4.853 -0.91,-8.58c-0.204,-2.51 -0.34,-5.315 -0.407,-8.415Zm-0.048,-11.865c0,-3.727 -1.668,-6.587 -5.005,-8.58c-3.337,-1.993 -7.757,-3.38 -13.26,-4.16c-5.503,-0.78 -11.548,-1.17 -18.135,-1.17c-8.84,0 -15.687,1.148 -20.54,3.445c-4.853,2.297 -7.28,5.785 -7.28,10.465c0,3.033 1.083,5.59 3.25,7.67c2.167,2.08 5.33,3.64 9.49,4.68c4.16,1.04 9.187,1.56 15.08,1.56c6.587,0 12.632,-0.412 18.135,-1.235c5.503,-0.823 9.923,-2.232 13.26,-4.225c3.337,-1.993 5.005,-4.81 5.005,-8.45Zm323.098,11.865c-0.294,0.627 -0.614,1.243 -0.958,1.85c-2.34,4.117 -5.72,7.67 -10.14,10.66c-4.42,2.99 -9.75,5.287 -15.99,6.89c-6.24,1.603 -13.26,2.405 -21.06,2.405c-9.36,0 -17.68,-1.322 -24.96,-3.965c-7.28,-2.643 -13.022,-6.478 -17.225,-11.505c-4.203,-5.027 -6.305,-11.093 -6.305,-18.2c0,-7.453 2.102,-13.693 6.305,-18.72c4.203,-5.027 9.945,-8.797 17.225,-11.31c7.28,-2.513 15.6,-3.77 24.96,-3.77c10.4,0 19.392,1.408 26.975,4.225c7.583,2.817 13.433,6.76 17.55,11.83c1.445,1.78 2.637,3.664 3.575,5.653l0,-19.758l31.2,0l0,63.7l-29.38,0l-0.455,-2.99c-0.303,-1.993 -0.607,-4.853 -0.91,-8.58c-0.204,-2.51 -0.34,-5.315 -0.407,-8.415Zm-0.048,-11.865c0,-3.727 -1.668,-6.587 -5.005,-8.58c-3.337,-1.993 -7.757,-3.38 -13.26,-4.16c-5.503,-0.78 -11.548,-1.17 -18.135,-1.17c-8.84,0 -15.687,1.148 -20.54,3.445c-4.853,2.297 -7.28,5.785 -7.28,10.465c0,3.033 1.083,5.59 3.25,7.67c2.167,2.08 5.33,3.64 9.49,4.68c4.16,1.04 9.187,1.56 15.08,1.56c6.587,0 12.632,-0.412 18.135,-1.235c5.503,-0.823 9.923,-2.232 13.26,-4.225c3.337,-1.993 5.005,-4.81 5.005,-8.45Zm-191.474,-6.202l-26.405,38.052l-29.38,0l-38.09,-63.7l34.32,0l20.167,39.149l22.342,-39.149l34.45,0l21.51,39.271l21.52,-39.271l34.45,0l-40.17,63.7l-29.38,0l-25.335,-38.052Zm-365.964,40.652c-18.893,0 -34.103,-1.668 -45.63,-5.005c-11.527,-3.337 -19.912,-8.277 -25.155,-14.82c-5.243,-6.543 -7.865,-14.668 -7.865,-24.375c0,-9.707 2.622,-17.832 7.865,-24.375c5.243,-6.543 13.628,-11.483 25.155,-14.82c11.527,-3.337 26.737,-5.005 45.63,-5.005c18.893,0 34.103,1.668 45.63,5.005c11.527,3.337 19.912,8.277 25.155,14.82c5.243,6.543 7.865,14.668 7.865,24.375c0,9.707 -2.622,17.832 -7.865,24.375c-5.243,6.543 -13.628,11.483 -25.155,14.82c-11.527,3.337 -26.737,5.005 -45.63,5.005Zm0,-24.7c8.927,0 16.64,-0.542 23.14,-1.625c6.5,-1.083 11.527,-3.033 15.08,-5.85c3.553,-2.817 5.33,-6.825 5.33,-12.025c0,-5.2 -1.777,-9.208 -5.33,-12.025c-3.553,-2.817 -8.58,-4.767 -15.08,-5.85c-6.5,-1.083 -14.213,-1.625 -23.14,-1.625c-8.927,0 -16.748,0.542 -23.465,1.625c-6.717,1.083 -11.96,3.033 -15.73,5.85c-3.77,2.817 -5.655,6.825 -5.655,12.025c0,5.2 1.885,9.208 5.655,12.025c3.77,2.817 9.013,4.767 15.73,5.85c6.717,1.083 14.538,1.625 23.465,1.625Zm94.25,-67.6l31.2,0l0,89.7l-31.2,0l0,-89.7Zm508.039,0l31.2,0l0,89.7l-31.2,0l0,-89.7Zm132.73,66.82l30.68,0c-0.78,5.027 -3.272,9.403 -7.475,13.13c-4.203,3.727 -10.313,6.608 -18.33,8.645c-8.017,2.037 -18.222,3.055 -30.615,3.055c-13.087,0 -24.375,-1.04 -33.865,-3.12c-9.49,-2.08 -16.792,-5.59 -21.905,-10.53c-5.113,-4.94 -7.67,-11.613 -7.67,-20.02c0,-8.32 2.492,-14.972 7.475,-19.955c4.983,-4.983 12.198,-8.558 21.645,-10.725c9.447,-2.167 20.887,-3.25 34.32,-3.25c13.173,0 23.963,1.17 32.37,3.51c8.407,2.34 14.603,6.132 18.59,11.375c3.987,5.243 5.893,12.328 5.72,21.255l-88.4,0c0.433,2.253 1.668,4.333 3.705,6.24c2.037,1.907 5.2,3.445 9.49,4.615c4.29,1.17 10.032,1.755 17.225,1.755c7.453,0 13.585,-0.52 18.395,-1.56c4.81,-1.04 7.692,-2.513 8.645,-4.42Zm-27.04,-23.92c-9.187,0 -16.185,0.997 -20.995,2.99c-4.81,1.993 -7.648,3.987 -8.515,5.98l57.2,0c-0.607,-2.253 -3.033,-4.312 -7.28,-6.175c-4.247,-1.863 -11.05,-2.795 -20.41,-2.795Z" style="fill:#fff;"/></svg>