<?xml version="1.0" encoding="UTF-8" standalone="no"?><!DOCTYPE svg PUBLIC "-//W3C//DTD SVG 1.1//EN" "http://www.w3.org/Graphics/SVG/1.1/DTD/svg11.dtd"><svg width="100%" height="100%" viewBox="0 0 1000 1000" version="1.1" xmlns="http://www.w3.org/2000/svg" xmlns:xlink="http://www.w3.org/1999/xlink" xml:space="preserve" xmlns:serif="http://www.serif.com/" style="fill-rule:evenodd;clip-rule:evenodd;stroke-linejoin:round;stroke-miterlimit:2;"><rect id="Artboard1" x="0" y="0" width="1000" height="1000" style="fill:none;"/><path d="M342.44,523.059l-6.442,10.03l-28.437,0l44.361,-66.18l28.747,0l44.775,66.18l-28.437,0l-6.494,-10.03l-48.073,0Zm38.03,-15.511l-14.091,-21.764l-13.977,21.764l28.069,0Zm129.56,-20.299l-23.473,45.841l-34.951,0l-37.019,-66.18l29.16,0l26.2,51.619l24.469,-51.619l31.229,0l24.469,51.619l26.2,-51.619l28.747,0l-36.606,66.18l-34.951,0l-23.473,-45.841Zm119.051,35.81l-6.442,10.03l-28.437,0l44.361,-66.18l28.747,0l44.775,66.18l-28.437,0l-6.494,-10.03l-48.073,0Zm38.03,-15.511l-14.091,-21.764l-13.977,21.764l28.069,0Zm-526.86,27.609c-15.028,0 -27.127,-1.327 -36.295,-3.981c-9.169,-2.654 -15.838,-6.584 -20.009,-11.788c-4.171,-5.205 -6.256,-11.668 -6.256,-19.389c0,-7.721 2.085,-14.184 6.256,-19.389c4.171,-5.205 10.84,-9.134 20.009,-11.788c9.169,-2.654 21.267,-3.981 36.295,-3.981c15.028,0 27.127,1.327 36.295,3.981c9.169,2.654 15.838,6.584 20.009,11.788c4.171,5.205 6.256,11.668 6.256,19.389c0,7.721 -2.085,14.184 -6.256,19.389c-4.171,5.205 -10.84,9.134 -20.009,11.788c-9.169,2.654 -21.267,3.981 -36.295,3.981Zm0,-19.647c7.101,0 13.236,-0.431 18.406,-1.293c5.17,-0.862 9.169,-2.413 11.995,-4.653c2.826,-2.24 4.24,-5.429 4.24,-9.565c0,-4.136 -1.413,-7.325 -4.24,-9.565c-2.826,-2.24 -6.825,-3.792 -11.995,-4.653c-5.17,-0.862 -11.306,-1.293 -18.406,-1.293c-7.101,0 -13.322,0.431 -18.665,1.293c-5.343,0.862 -9.513,2.413 -12.512,4.653c-2.999,2.24 -4.498,5.429 -4.498,9.565c0,4.136 1.499,7.325 4.498,9.565c2.999,2.24 7.169,3.792 12.512,4.653c5.343,0.862 11.564,1.293 18.665,1.293Zm101.855,-48.601l0,46.533l60.286,0l0,19.647l-86.137,0l0,-66.18l25.851,0Zm504.103,0l0,46.533l60.286,0l0,19.647l-86.137,0l0,-66.18l25.851,0Zm97.512,38.26l0,8.272l78.588,0l0,19.647l-104.44,0l0,-66.18l104.233,0l0,19.647l-78.382,0l0,8.272l64.112,0l0,10.341l-64.112,0Z" style="fill:#fff;"/></svg>